<svg xmlns="http://www.w3.org/2000/svg" viewBox="0 0 64 64">
  <style>
    .bg { fill: #F6F1E7; } .ink { fill: #17130F; }
    @media (prefers-color-scheme: dark) {
      .bg { fill: #1E1A16; } .ink { fill: #EDE6D8; }
    }
  </style>
  <rect class="bg" width="64" height="64" rx="9"/>
  <path class="ink" d="M26.6 55.0Q21.5 55.0 19.1 52.1Q16.6 49.2 16.6 44.2Q16.6 40.6 17.9 37.1Q19.3 33.6 21.6 30.7Q23.9 27.9 27.1 26.3Q30.2 24.6 34.0 24.6Q37.3 24.6 39.0 26.1Q40.6 27.6 40.6 29.7Q40.6 31.6 39.2 33.3Q37.8 35.0 34.2 36.5Q30.6 38.0 24.0 39.3Q23.9 40.3 23.9 41.3Q23.9 44.9 25.7 47.0Q27.4 49.1 30.5 49.1Q32.5 49.1 34.4 48.1Q36.3 47.1 38.4 44.9H38.6L39.5 45.8Q37.4 49.5 34.0 52.3Q30.6 55.0 26.6 55.0ZM32.0 27.1Q29.3 27.1 27.2 29.8Q25.0 32.5 24.3 37.0Q30.2 35.6 32.4 33.9Q34.7 32.1 34.7 29.7Q34.7 28.6 34.0 27.9Q33.4 27.1 32.0 27.1ZM34.0 20.4 40.2 9.0H47.4L47.3 10.2L35.0 20.4Z"/>
</svg>
