<svg xmlns="http://www.w3.org/2000/svg" viewBox="0 0 64 64">
  <style>
    .bg { fill: #F6F1E7; } .ink { fill: #17130F; }
    @media (prefers-color-scheme: dark) {
      .bg { fill: #1E1A16; } .ink { fill: #EDE6D8; }
    }
  </style>
  <rect class="bg" width="64" height="64" rx="9"/>
  <path class="ink" d="M21.4 41.1Q21.4 41.1 22.5 40.7Q23.6 40.3 25.5 39.7Q27.3 39.0 29.4 38.3Q31.6 37.6 33.6 36.9Q35.6 36.2 37.1 35.7L36.2 36.8Q36.5 35.9 36.6 34.6Q36.8 33.4 36.8 31.8Q36.8 29.8 36.0 28.6Q35.3 27.3 34.0 27.3Q32.7 27.3 31.3 28.3Q30.0 29.3 28.8 31.1Q27.6 32.9 26.8 35.3Q26.0 37.7 25.8 40.6Q25.5 45.2 27.1 47.5Q28.8 49.9 32.1 49.9Q33.9 49.9 35.6 49.2Q37.3 48.5 38.6 47.2Q40.0 45.9 40.9 44.2Q41.5 43.3 42.0 43.0Q42.5 42.8 43.0 42.8Q43.6 42.8 44.0 43.3Q44.4 43.9 44.1 45.1Q43.5 47.6 41.6 49.9Q39.6 52.2 36.3 53.6Q33.0 55.0 28.4 55.0Q24.3 55.0 21.6 53.5Q19.0 52.0 17.8 49.3Q16.7 46.6 16.9 42.8Q17.2 39.0 18.8 35.7Q20.4 32.3 22.9 29.7Q25.4 27.2 28.7 25.7Q31.9 24.3 35.6 24.3Q38.5 24.3 40.3 25.3Q42.2 26.3 43.2 28.1Q44.1 29.8 44.3 32.0Q44.4 32.6 44.6 33.0Q44.9 33.4 45.3 33.4Q45.8 33.5 46.0 33.7Q46.2 34.0 46.2 34.4Q46.2 35.0 45.8 35.5Q45.3 36.0 43.9 36.4Q42.6 36.8 40.4 37.5Q38.3 38.2 35.8 39.0Q33.3 39.8 30.8 40.7Q28.3 41.5 26.2 42.1Q24.2 42.8 22.9 43.2Q21.7 43.6 21.7 43.6ZM38.6 13.2Q40.1 11.1 41.6 10.0Q43.1 8.8 44.8 9.0Q46.4 9.2 46.9 10.3Q47.4 11.5 46.8 12.7Q46.3 14.1 45.1 15.1Q43.9 16.1 41.9 17.1L35.3 21.0Q34.8 21.2 34.3 21.2Q33.8 21.2 33.5 21.0Q33.3 20.6 33.5 20.2Q33.7 19.8 34.1 19.3Z"/>
</svg>
